<svg xmlns="http://www.w3.org/2000/svg" version="1.1" xmlns:xlink="http://www.w3.org/1999/xlink" xmlns:svgjs="http://svgjs.dev/svgjs" width="300" height="300" viewBox="0 0 2000 1999"><g transform="matrix(1,0,0,1,-0.431486880466764,-0.4312711370263287)"><svg viewBox="0 0 343 343" data-background-color="#5e1914" preserveAspectRatio="xMidYMid meet" height="1999" width="2000" xmlns="http://www.w3.org/2000/svg" xmlns:xlink="http://www.w3.org/1999/xlink"><g id="tight-bounds" transform="matrix(1,0,0,1,0.0740000000000407,0.07400000000001228)"><svg viewBox="0 0 342.85155851775386 342.85155851775386" height="342.85155851775386" width="342.85155851775386"><g><svg></svg></g><g><svg viewBox="0 0 342.85155851775386 342.85155851775386" height="342.85155851775386" width="342.85155851775386"><g><path d="M0 171.426c0-94.676 76.75-171.426 171.426-171.426 94.676 0 171.426 76.75 171.426 171.426 0 94.676-76.75 171.426-171.426 171.426-94.676 0-171.426-76.75-171.426-171.426zM171.426 337.222c91.567 0 165.796-74.229 165.796-165.796 0-91.567-74.229-165.796-165.796-165.796-91.567 0-165.796 74.229-165.796 165.796 0 91.567 74.229 165.796 165.796 165.796z" data-fill-palette-color="tertiary" fill="#000000" stroke="transparent"></path><ellipse rx="164.56874808852186" ry="164.56874808852186" cx="171.42577925887693" cy="171.42577925887693" fill="#000000" stroke="transparent" stroke-width="0" fill-opacity="1" data-fill-palette-color="tertiary"></ellipse></g><g transform="matrix(1,0,0,1,64.84655864529837,140.21296774955616)"><svg viewBox="0 0 213.1584412271571 62.42562301864156" height="62.42562301864156" width="213.1584412271571"><g><svg viewBox="0 0 213.1584412271571 62.42562301864156" height="62.42562301864156" width="213.1584412271571"><g><svg viewBox="0 0 213.1584412271571 62.42562301864156" height="62.42562301864156" width="213.1584412271571"><g><svg viewBox="0 0 213.1584412271571 62.42562301864156" height="62.42562301864156" width="213.1584412271571"><g id="textblocktransform"><svg viewBox="0 0 213.1584412271571 62.42562301864156" height="62.42562301864156" width="213.1584412271571" id="textblock"><g><svg viewBox="0 0 213.1584412271571 62.42562301864156" height="62.42562301864156" width="213.1584412271571"><g transform="matrix(1,0,0,1,0,0)"><svg width="213.1584412271571" viewBox="2.7 -32.25 116.94 34.25" height="62.42562301864156" data-palette-color="#5e1914"><path d="M28.5 2Q24.15-4.75 20.03-10.88 15.9-17 13.25-20.78 10.6-24.55 9.9-25.55L9.9-25.55 9.65-25.55 9.4-4.2Q9.4-3.1 9.75-2.65 10.1-2.2 10.95-2.2L10.95-2.2 13.5-2.25 13.6-2.05 13.15 0.2Q12.6 0.15 10.9 0.08 9.2 0 7.85 0L7.85 0Q6.6 0 5.13 0.18 3.65 0.35 3.2 0.4L3.2 0.4 3.45-1.9Q5-2.1 5.75-2.83 6.5-3.55 6.55-5.05L6.55-5.05 7.2-26.9Q7.2-28.45 6.28-29.1 5.35-29.75 2.85-30L2.85-30 2.7-30.25 3.1-32.1Q3.55-32.05 5.05-31.95 6.55-31.85 7.4-31.85L7.4-31.85Q8.45-31.85 9.45-31.93 10.45-32 10.75-32.05L10.75-32.05Q14.45-26.3 18.18-20.8 21.9-15.3 24.4-11.75 26.9-8.2 27.55-7.25L27.55-7.25 27.8-7.25 27.8-27.5Q27.8-29.65 26.15-29.65L26.15-29.65 24.25-29.6 24.15-29.8 24.6-32.05Q25.1-32 26.5-31.93 27.9-31.85 29.35-31.85L29.35-31.85Q30.65-31.85 32.23-32.02 33.8-32.2 34.3-32.25L34.3-32.25 34.05-29.95Q32.3-29.7 31.5-28.98 30.7-28.25 30.65-26.8L30.65-26.8 29.95 1.3 28.5 2ZM57.5 0.6Q56.4 0.6 55.25-0.38 54.1-1.35 53.15-3.05L53.15-3.05 48.95-10.4 45.7-10.4 45.6-5.05Q45.6-3.6 45.8-2.98 46-2.35 46.57-2.15 47.15-1.95 48.55-1.9L48.55-1.9 48.65-1.75 48.25 0.15Q47.65 0.1 46.07 0.08 44.5 0.05 42.9 0.05L42.9 0.05Q41.35 0.05 40.2 0.1 39.05 0.15 38.65 0.2L38.65 0.2 39-1.85Q40.85-2.1 41.45-2.7 42.05-3.3 42.05-4.95L42.05-4.95 42.1-20.9Q42.1-22.1 41.8-22.53 41.5-22.95 40.65-22.95L40.65-22.95 39.25-22.9 39.1-23.1 39.4-25Q39.9-25 41.3-24.95 42.7-24.9 44.1-24.9L44.1-24.9Q45.55-24.9 47.2-24.98 48.85-25.05 49.45-25.05L49.45-25.05Q53.5-25.05 55.8-23.38 58.1-21.7 58.1-18.75L58.1-18.75Q58.1-16.45 56.55-14.5 55-12.55 52.2-11.3L52.2-11.3 56.45-4.9Q57.65-3.1 58.75-2.35 59.85-1.6 61.4-1.6L61.4-1.6 61.6-1.35 61.35 0.2 57.5 0.6ZM49.85-12.6Q50.8-13 51.52-13.38 52.25-13.75 53.15-14.95 54.05-16.15 54.05-18.05L54.05-18.05Q54.05-22.9 46.9-22.9L46.9-22.9Q46.5-22.9 46.35-22.73 46.2-22.55 46.2-22L46.2-22Q45.8-15.9 45.8-13L45.8-13 49.85-12.6ZM78.95 0.7Q73.9-13 71.4-19.35L71.4-19.35 71.15-19.35Q70.95-16.95 70.42-10.4 69.9-3.85 69.9-3.2L69.9-3.2Q69.9-2.55 70.2-2.27 70.5-2 71.2-2L71.2-2 72.8-2 72.9-1.85 72.55 0.15Q72.1 0.15 70.82 0.08 69.55 0 68.3 0L68.3 0Q67.3 0 66.15 0.13 65 0.25 64.65 0.3L64.65 0.3 64.85-1.75Q66.15-1.9 66.7-2.53 67.25-3.15 67.45-4.7L67.45-4.7Q67.85-8.1 68.52-14.25 69.2-20.4 69.2-21.15L69.2-21.15Q69.2-22.15 68.42-22.63 67.65-23.1 65.75-23.2L65.75-23.2 65.6-23.45 65.95-25.1Q66.5-25.05 67.9-24.98 69.3-24.9 70.6-24.9L70.6-24.9Q71.7-24.9 72.62-24.95 73.55-25 73.85-25.05L73.85-25.05Q75.35-20.4 76.77-16.32 78.2-12.25 79.12-9.83 80.05-7.4 80.3-6.8L80.3-6.8 80.55-6.8Q81.1-8.2 83.02-13.35 84.95-18.5 87.2-24.95L87.2-24.95Q87.5-25 87.97-24.98 88.45-24.95 88.9-24.95L88.9-24.95Q89.45-24.9 90.5-24.9L90.5-24.9Q91.3-24.9 92.82-25 94.35-25.1 94.85-25.15L94.85-25.15 94.95-25 94.7-23.25Q92.95-23.05 92.25-22.58 91.55-22.1 91.55-21.1L91.55-21.1Q91.55-20.1 91.9-14.75 92.25-9.4 92.6-5.65L92.6-5.65Q92.85-3.4 93.25-2.7 93.65-2 94.6-2L94.6-2 95.75-2.05 95.85-1.9 95.5 0.1Q95.1 0.1 93.95 0.05 92.8 0 91.5 0L91.5 0Q90.2 0 88.55 0.15 86.9 0.3 86.8 0.3L86.8 0.3 87-1.75Q88.3-1.9 88.85-2.35 89.4-2.8 89.4-3.7L89.4-3.7Q89.4-4.6 88.87-10.85 88.35-17.1 88.15-19.35L88.15-19.35 87.9-19.35Q84.95-11.8 80.4 0.4L80.4 0.4 78.95 0.7ZM101.19 0.4L101.49-1.7Q103.09-1.95 103.67-2.63 104.24-3.3 104.24-5L104.24-5 104.29-20.85Q104.29-22.1 103.99-22.53 103.69-22.95 102.79-22.95L102.79-22.95 101.44-22.9 101.29-23.1 101.59-25Q101.84-25 103.09-24.95 104.34-24.9 106.44-24.9L106.44-24.9Q107.54-24.9 109.17-25.05 110.79-25.2 111.29-25.25L111.29-25.25 111.09-23.15Q109.74-23 109.19-22.68 108.64-22.35 108.54-21.85 108.44-21.35 108.29-19.8L108.29-19.8Q107.79-13.1 107.79-4.95L107.79-4.95Q107.79-3.7 108.02-3.13 108.24-2.55 108.92-2.35 109.59-2.15 111.04-2.15L111.04-2.15Q113.44-2.15 114.57-2.55 115.69-2.95 116.27-4.13 116.84-5.3 117.29-7.85L117.29-7.85 119.49-8.1 119.64-7.8Q119.54-7.15 119.17-4.83 118.79-2.5 118.49 0.05L118.49 0.05 118.24 0.35Q117.09 0.3 113.37 0.15 109.64 0 107.09 0L107.09 0Q105.09 0 103.37 0.18 101.64 0.35 101.19 0.4L101.19 0.4Z" opacity="1" transform="matrix(1,0,0,1,0,0)" fill="#ffffff" class="wordmark-text-0" data-fill-palette-color="quaternary" id="text-0"></path></svg></g></svg></g></svg></g></svg></g><g></g></svg></g></svg></g></svg></g></svg></g><defs></defs></svg><rect width="342.85155851775386" height="342.85155851775386" fill="none" stroke="none" visibility="hidden"></rect></g></svg></g></svg>